<?xml version="1.0" encoding="utf-8"?>
<!-- Generator: Adobe Illustrator 24.1.3, SVG Export Plug-In . SVG Version: 6.00 Build 0)  -->
<svg version="1.1" id="Layer_1" xmlns="http://www.w3.org/2000/svg" xmlns:xlink="http://www.w3.org/1999/xlink" x="0px" y="0px"
	 viewBox="0 0 1440 320" style="enable-background:new 0 0 1440 320;" xml:space="preserve">
<style type="text/css">
	.st0{fill:#3498DB;}
</style>
<path class="st0" d="M0,64l34.3,5.3C68.6,75,137,85,206,90.7C274.3,96,343,96,411,80c69-16,138-48,206-42.7
	C685.7,43,754,85,823,90.7c68.4,5.3,137-26.7,206-16c68.1,10.3,137,64.3,205,80c68.9,16.3,137-5.7,172-16l34-10.7V0h-34.3
	C1371.4,0,1303,0,1234,0c-68.3,0-137,0-205,0c-69,0-138,0-206,0c-68.7,0-137,0-206,0c-68.4,0-137,0-206,0c-68.1,0-137,0-205,0
	C137.1,0,69,0,34,0H0V64z"/>
</svg>
