<?xml version="1.0" standalone="no"?><svg xmlns="http://www.w3.org/2000/svg" viewBox="0 0 1440 320"><path fill="#3498db" fill-opacity="1" d="M0,64L15,90.7C30,117,60,171,90,208C120,245,150,267,180,250.7C210,235,240,181,270,144C300,107,330,85,360,96C390,107,420,149,450,170.7C480,192,510,192,540,192C570,192,600,192,630,192C660,192,690,192,720,165.3C750,139,780,85,810,101.3C840,117,870,203,900,250.7C930,299,960,309,990,272C1020,235,1050,149,1080,122.7C1110,96,1140,128,1170,122.7C1200,117,1230,75,1260,69.3C1290,64,1320,96,1350,138.7C1380,181,1410,235,1425,261.3L1440,288L1440,320L1425,320C1410,320,1380,320,1350,320C1320,320,1290,320,1260,320C1230,320,1200,320,1170,320C1140,320,1110,320,1080,320C1050,320,1020,320,990,320C960,320,930,320,900,320C870,320,840,320,810,320C780,320,750,320,720,320C690,320,660,320,630,320C600,320,570,320,540,320C510,320,480,320,450,320C420,320,390,320,360,320C330,320,300,320,270,320C240,320,210,320,180,320C150,320,120,320,90,320C60,320,30,320,15,320L0,320Z"></path></svg>