<?xml version="1.0" standalone="no"?><svg xmlns="http://www.w3.org/2000/svg" viewBox="0 0 1440 320"><path fill="#3498DB" fill-opacity="1" d="M0,224L17.1,213.3C34.3,203,69,181,103,149.3C137.1,117,171,75,206,64C240,53,274,75,309,96C342.9,117,377,139,411,122.7C445.7,107,480,53,514,53.3C548.6,53,583,107,617,144C651.4,181,686,203,720,176C754.3,149,789,75,823,58.7C857.1,43,891,85,926,122.7C960,160,994,192,1029,186.7C1062.9,181,1097,139,1131,149.3C1165.7,160,1200,224,1234,256C1268.6,288,1303,288,1337,261.3C1371.4,235,1406,181,1423,154.7L1440,128L1440,0L1422.9,0C1405.7,0,1371,0,1337,0C1302.9,0,1269,0,1234,0C1200,0,1166,0,1131,0C1097.1,0,1063,0,1029,0C994.3,0,960,0,926,0C891.4,0,857,0,823,0C788.6,0,754,0,720,0C685.7,0,651,0,617,0C582.9,0,549,0,514,0C480,0,446,0,411,0C377.1,0,343,0,309,0C274.3,0,240,0,206,0C171.4,0,137,0,103,0C68.6,0,34,0,17,0L0,0Z"></path></svg>