<?xml version="1.0" standalone="no"?><svg xmlns="http://www.w3.org/2000/svg" viewBox="0 0 1440 320"><path fill="#3498db" fill-opacity="1" d="M0,192L20,202.7C40,213,80,235,120,240C160,245,200,235,240,197.3C280,160,320,96,360,80C400,64,440,96,480,106.7C520,117,560,107,600,106.7C640,107,680,117,720,122.7C760,128,800,128,840,149.3C880,171,920,213,960,218.7C1000,224,1040,192,1080,186.7C1120,181,1160,203,1200,197.3C1240,192,1280,160,1320,144C1360,128,1400,128,1420,128L1440,128L1440,320L1420,320C1400,320,1360,320,1320,320C1280,320,1240,320,1200,320C1160,320,1120,320,1080,320C1040,320,1000,320,960,320C920,320,880,320,840,320C800,320,760,320,720,320C680,320,640,320,600,320C560,320,520,320,480,320C440,320,400,320,360,320C320,320,280,320,240,320C200,320,160,320,120,320C80,320,40,320,20,320L0,320Z"></path></svg>